<svg xmlns="http://www.w3.org/2000/svg" width="512" height="512" viewBox="0 0 512 512">
  <defs>
    <linearGradient id="bgGrad" x1="0%" y1="0%" x2="100%" y2="100%">
      <stop offset="0%" style="stop-color:#F8FAF7"/>
      <stop offset="100%" style="stop-color:#E8F5E9"/>
    </linearGradient>
    <linearGradient id="heartGrad" x1="0%" y1="0%" x2="100%" y2="100%">
      <stop offset="0%" style="stop-color:#5B8C5A"/>
      <stop offset="100%" style="stop-color:#3D5E3C"/>
    </linearGradient>
  </defs>
  
  <!-- Background -->
  <rect width="512" height="512" rx="108" fill="url(#bgGrad)"/>
  
  <!-- Main Heart -->
  <path d="M256 380 L156 280 C116 240 116 180 156 150 C196 120 246 130 256 170 C266 130 316 120 356 150 C396 180 396 240 356 280 L256 380Z" 
        fill="url(#heartGrad)"/>
  
  <!-- Small decorative hearts -->
  <path d="M120 120 m-20 0 a20 20 0 1 1 40 0 a20 20 0 1 1 -40 0" fill="#7BA17A" opacity="0.8"/>
  <path d="M392 150 m-15 0 a15 15 0 1 1 30 0 a15 15 0 1 1 -30 0" fill="#A8D4A7" opacity="0.8"/>
  <path d="M100 350 m-12 0 a12 12 0 1 1 24 0 a12 12 0 1 1 -24 0" fill="#A8D4A7" opacity="0.6"/>
  
  <!-- Sparkle effects -->
  <circle cx="380" cy="100" r="4" fill="#5B8C5A" opacity="0.6"/>
  <circle cx="420" cy="300" r="3" fill="#7BA17A" opacity="0.5"/>
  <circle cx="90" cy="200" r="3" fill="#5B8C5A" opacity="0.5"/>
</svg>
